<?xml version="1.0" standalone="no"?>
<!DOCTYPE svg PUBLIC "-//W3C//DTD SVG 20010904//EN"
 "http://www.w3.org/TR/2001/REC-SVG-20010904/DTD/svg10.dtd">
<svg version="1.0" xmlns="http://www.w3.org/2000/svg"
 width="1300.000000pt" height="959.000000pt" viewBox="0 0 1300.000000 959.000000"
 preserveAspectRatio="xMidYMid meet">

<g transform="translate(0.000000,959.000000) scale(0.100000,-0.100000)"
fill="#000000" stroke="none">
<path d="M5562 6809 c-75 -37 -105 -95 -78 -147 l16 -31 -64 -57 c-36 -32 -62
-62 -60 -66 3 -5 0 -7 -8 -6 -7 2 -12 -3 -10 -10 1 -6 -1 -11 -5 -10 -15 3
-43 -14 -37 -23 3 -5 -1 -9 -9 -9 -16 0 -60 -44 -51 -52 3 -4 -12 -2 -34 4
-45 11 -127 -5 -116 -24 4 -6 3 -8 -4 -4 -15 9 -59 -40 -65 -74 -12 -56 21
-117 75 -143 l33 -16 -4 -128 c-3 -112 -13 -164 -29 -149 -10 11 -61 -25 -81
-57 -22 -36 -27 -81 -12 -119 19 -50 118 -96 167 -78 17 7 28 5 40 -7 13 -14
17 -14 26 -2 8 11 8 10 4 -5 -4 -12 3 -31 20 -54 22 -28 25 -38 16 -51 -41
-56 -39 -115 5 -161 35 -37 79 -53 133 -46 53 6 87 28 107 71 9 19 21 31 26
28 7 -4 8 1 3 13 -4 10 -9 27 -11 36 -4 17 -34 69 -46 78 -12 9 -7 60 5 53 6
-4 5 1 -3 11 -13 15 -15 16 -23 2 -5 -9 -6 -22 -2 -29 5 -9 4 -9 -6 0 -11 10
-10 17 4 38 10 14 15 32 13 38 -2 7 -14 -9 -26 -35 -20 -41 -27 -47 -54 -48
-55 0 -67 -3 -67 -14 0 -6 -6 0 -13 14 -8 14 -19 24 -25 23 -6 -2 -9 3 -6 11
3 8 -5 21 -18 30 -12 9 -18 16 -13 16 5 0 4 5 -3 12 -9 9 -9 15 1 27 23 27 42
84 30 88 -6 2 -9 13 -6 23 6 21 -53 84 -89 96 -20 6 -21 12 -14 103 3 53 6
113 6 134 0 27 5 39 18 43 9 3 29 12 43 20 24 13 32 11 83 -12 31 -14 61 -22
67 -18 7 4 9 3 6 -3 -3 -5 16 -19 44 -30 27 -12 47 -16 43 -10 -3 7 1 4 9 -5
7 -10 26 -22 41 -28 23 -8 27 -15 22 -35 -3 -13 -2 -26 4 -30 5 -3 6 -13 3
-21 -3 -9 7 -29 28 -50 25 -26 30 -37 21 -43 -7 -4 -10 -15 -6 -24 5 -13 2
-16 -12 -10 -11 4 -15 3 -11 -4 4 -6 -1 -17 -10 -24 -15 -13 -53 -88 -54 -106
0 -5 -8 -21 -18 -38 -19 -32 -21 -87 -4 -92 6 -2 13 4 16 14 3 10 16 36 28 58
38 69 38 72 24 91 -16 22 -19 38 -6 29 5 -3 13 0 16 6 4 5 14 8 23 4 9 -3 13
-3 9 1 -4 4 -2 13 5 21 6 7 8 16 5 19 -3 3 -1 19 3 35 11 38 -2 75 -29 82 -35
9 -26 37 12 37 l32 0 -3 48 c-2 26 -8 51 -12 56 -12 12 0 36 18 36 8 0 12 3 8
7 -4 4 -22 -1 -41 -11 l-35 -19 -91 42 c-50 23 -95 38 -101 35 -6 -4 -8 -2 -5
3 10 16 -18 24 -33 10 -10 -9 -11 -9 -6 0 7 13 -22 33 -41 26 -6 -2 -14 0 -17
5 -3 6 2 9 12 8 28 -2 28 65 0 116 -17 30 -20 42 -10 45 6 3 9 10 5 16 -3 7
-3 9 2 5 12 -11 47 12 41 27 -3 10 0 12 11 8 12 -5 15 -2 10 10 -3 9 -1 19 5
23 7 5 8 2 3 -6 -5 -8 -3 -11 6 -8 8 3 13 11 11 17 -1 7 2 10 7 7 11 -7 33 19
23 28 -4 4 -2 6 3 4 6 -1 22 6 37 18 19 15 24 25 17 35 -14 23 -10 35 5 14 11
-16 17 -17 29 -7 11 10 22 9 52 -3 24 -10 34 -12 30 -4 -5 7 -3 10 6 7 9 -3
13 -18 12 -44 -1 -29 1 -34 7 -19 8 20 9 19 9 -1 1 -12 3 -37 6 -55 4 -28 4
-30 -5 -14 -9 18 -10 17 -5 -5 2 -14 5 -34 6 -45 l0 -20 9 20 c12 28 12 93 -1
138 -11 42 2 73 27 63 7 -3 16 -1 19 4 8 12 -38 13 -50 1 -6 -4 -23 -11 -40
-15 -21 -5 -25 -4 -16 3 12 7 7 13 -20 24 l-34 14 45 0 c28 0 38 -2 26 -7 -17
-6 -17 -7 -3 -13 17 -6 41 15 29 28 -4 4 3 3 15 -4 35 -18 38 -13 7 14 -24 21
-27 27 -14 35 10 6 11 10 3 10 -7 0 -13 7 -13 15 0 9 6 12 18 9 15 -5 15 -4 2
8 -19 17 -24 59 -8 70 7 4 23 8 35 8 17 0 21 -5 19 -29 -1 -17 2 -27 7 -24 5
3 7 14 4 24 -7 26 7 24 26 -3 9 -13 16 -18 16 -13 1 17 -13 32 -44 47 -55 28
-87 30 -133 7z m65 -5 c-3 -3 -12 -4 -19 -1 -8 3 -5 6 6 6 11 1 17 -2 13 -5z
m-23 -116 c-3 -4 -10 -6 -15 -3 -11 7 -12 49 -2 59 9 9 24 -44 17 -56z m-85
29 c0 -9 -2 -8 -6 1 -2 6 -10 9 -15 6 -7 -4 -8 -2 -4 5 9 13 26 5 25 -12z m0
-52 c5 2 6 -8 3 -23 -5 -24 -6 -24 -13 -7 -4 11 -7 29 -7 40 0 17 1 17 5 2 2
-9 8 -15 12 -12z m9 -62 c-10 -2 -18 -9 -18 -15 0 -6 -3 -9 -6 -5 -10 10 6 27
24 26 15 -1 15 -2 0 -6z m-64 -42 c8 -12 -21 -34 -34 -26 -8 5 -8 11 1 21 13
16 25 18 33 5z m16 -431 c-8 -5 -19 -10 -25 -10 -5 0 -3 5 5 10 8 5 20 10 25
10 6 0 3 -5 -5 -10z m69 -26 c14 -12 -19 -1 -35 12 -18 14 -18 14 6 3 14 -6
27 -13 29 -15z m8 -20 c-3 -3 -12 -4 -19 -1 -8 3 -5 6 6 6 11 1 17 -2 13 -5z
m67 -10 c5 -14 4 -15 -9 -4 -8 7 -22 10 -30 6 -9 -3 -13 -2 -10 4 10 16 42 12
49 -6z m4 -255 c-2 -6 -8 -11 -13 -11 -6 -1 -15 -8 -22 -17 -7 -9 -13 -12 -13
-7 0 12 31 46 42 46 5 0 8 -5 6 -11z m-44 -100 c-2 -4 -12 -5 -21 -2 -12 5
-14 3 -7 -8 15 -24 14 -42 -1 -29 -13 11 -13 16 1 59 7 22 8 23 20 6 7 -10 11
-22 8 -26z m-45 -81 c-14 -25 -16 -23 -11 13 3 21 7 27 13 18 4 -7 3 -21 -2
-31z m-69 -118 c-18 -12 -43 -13 -36 -2 2 4 15 8 28 9 18 2 19 0 8 -7z m74
-76 c3 -8 2 -12 -4 -9 -6 3 -10 10 -10 16 0 14 7 11 14 -7z m3 -40 c-3 -3 -12
-4 -19 -1 -8 3 -5 6 6 6 11 1 17 -2 13 -5z m-48 -85 c-13 -10 -26 -15 -29 -12
-3 3 1 8 9 11 11 4 11 6 0 14 -10 6 -7 7 10 3 17 -5 22 -4 16 5 -6 9 -4 11 5
5 10 -6 7 -12 -11 -26z m-46 -4 c-3 -9 -8 -14 -10 -11 -3 3 -2 9 2 15 9 16 15
13 8 -4z"/>
<path d="M5435 6550 c-3 -5 -2 -10 4 -10 5 0 13 5 16 10 3 6 2 10 -4 10 -5 0
-13 -4 -16 -10z"/>
<path d="M5720 6725 c-11 -13 -10 -14 4 -9 9 3 16 10 16 15 0 13 -6 11 -20 -6z"/>
<path d="M5788 6733 c6 -2 18 -2 25 0 6 3 1 5 -13 5 -14 0 -19 -2 -12 -5z"/>
<path d="M5958 6733 c7 -3 16 -2 19 1 4 3 -2 6 -13 5 -11 0 -14 -3 -6 -6z"/>
<path d="M6013 6733 c9 -2 23 -2 30 0 6 3 -1 5 -18 5 -16 0 -22 -2 -12 -5z"/>
<path d="M5750 6716 c0 -2 6 -9 13 -15 10 -8 14 -7 14 4 0 8 -6 15 -14 15 -7
0 -13 -2 -13 -4z"/>
<path d="M5845 6710 c-13 -6 -15 -9 -5 -9 8 0 22 4 30 9 18 12 2 12 -25 0z"/>
<path d="M5765 6630 c-3 -6 1 -7 9 -4 18 7 21 14 7 14 -6 0 -13 -4 -16 -10z"/>
<path d="M5781 6616 c-24 -14 -24 -14 -3 -20 12 -4 30 -2 39 4 15 8 12 9 -12
5 l-30 -6 25 15 c31 19 14 20 -19 2z"/>
<path d="M5700 6596 c-6 -8 -21 -16 -32 -18 -12 -2 -23 -9 -26 -15 -2 -8 13
-4 37 9 23 12 41 25 41 30 0 12 -6 10 -20 -6z"/>
<path d="M5847 6599 c7 -7 15 -10 18 -7 3 3 -2 9 -12 12 -14 6 -15 5 -6 -5z"/>
<path d="M5651 6535 c1 -19 18 -51 18 -35 0 8 -4 22 -9 30 -5 8 -9 11 -9 5z"/>
<path d="M5662 6435 c0 -16 2 -22 5 -12 2 9 2 23 0 30 -3 6 -5 -1 -5 -18z"/>
<path d="M5670 6390 c0 -5 5 -10 10 -10 6 0 10 5 10 10 0 6 -4 10 -10 10 -5 0
-10 -4 -10 -10z"/>
<path d="M5649 6348 c-2 -25 0 -44 5 -41 4 3 5 -8 1 -26 -8 -38 3 -81 16 -60
12 20 11 37 -1 19 -8 -11 -9 0 -6 36 2 28 1 66 -3 85 l-8 34 -4 -47z"/>
<path d="M5697 6250 c-3 -11 1 -41 9 -67 8 -27 13 -50 12 -53 -2 -3 8 -6 22
-8 l25 -3 -22 15 c-21 15 -40 80 -34 119 3 23 -5 22 -12 -3z"/>
<path d="M5672 6180 c0 -14 2 -19 5 -12 2 6 2 18 0 25 -3 6 -5 1 -5 -13z"/>
<path d="M5677 6133 c9 -23 29 -43 42 -43 6 0 2 9 -9 20 -11 11 -20 25 -20 30
0 6 -4 10 -10 10 -5 0 -6 -8 -3 -17z"/>
<path d="M5770 6126 c0 -2 7 -7 16 -10 8 -3 12 -2 9 4 -6 10 -25 14 -25 6z"/>
<path d="M5924 6116 c-10 -8 -16 -18 -11 -22 4 -4 7 -2 7 4 0 7 5 12 11 12 5
0 8 -4 5 -8 -3 -5 1 -9 9 -9 10 0 12 4 5 12 -5 7 -7 15 -3 18 12 12 -3 7 -23
-7z"/>
<path d="M5967 6109 c7 -7 15 -10 18 -7 3 3 -2 9 -12 12 -14 6 -15 5 -6 -5z"/>
<path d="M5650 6103 c0 -13 29 -38 35 -31 3 3 -4 13 -15 23 -11 10 -20 13 -20
8z"/>
<path d="M5802 6094 c-14 -16 -5 -18 17 -5 7 5 9 11 5 14 -5 3 -15 -1 -22 -9z"/>
<path d="M5875 6101 c-6 -11 13 -26 22 -17 4 3 1 6 -6 6 -7 0 -9 5 -6 10 3 6
4 10 1 10 -3 0 -7 -4 -11 -9z"/>
<path d="M5765 5979 c-4 -6 -4 -13 -1 -16 3 -4 6 -1 6 6 0 7 5 9 12 5 7 -4 8
-3 4 4 -9 15 -13 15 -21 1z"/>
<path d="M5830 5979 c0 -5 -5 -7 -11 -3 -8 4 -7 0 1 -15 9 -18 30 -21 30 -5 0
3 -5 2 -11 -2 -8 -4 -9 0 -4 15 3 11 4 21 1 21 -3 0 -6 -5 -6 -11z"/>
<path d="M5674 5948 c2 -18 1 -25 -1 -15 -5 21 -38 40 -61 34 -14 -4 -13 -6 5
-12 35 -11 55 -49 43 -81 -6 -15 -9 -29 -6 -31 2 -3 7 5 11 16 6 19 16 25 36
23 3 -1 6 6 6 13 0 10 -4 11 -11 6 -8 -7 -10 2 -8 29 2 20 -1 41 -6 44 -7 4
-10 -6 -8 -26z"/>
<path d="M5786 5953 c-3 -3 0 -13 6 -20 10 -12 9 -14 -6 -11 -10 2 -25 -7 -33
-19 -15 -22 -15 -23 16 -12 17 6 31 15 31 19 0 10 20 8 38 -3 6 -5 12 -5 11 0
0 13 -56 53 -63 46z m25 -20 c13 -16 12 -17 -3 -4 -10 7 -18 15 -18 17 0 8 8
3 21 -13z m-31 -23 c0 -5 -5 -10 -11 -10 -5 0 -7 5 -4 10 3 6 8 10 11 10 2 0
4 -4 4 -10z"/>
<path d="M5720 5939 c0 -5 5 -7 10 -4 6 3 10 8 10 11 0 2 -4 4 -10 4 -5 0 -10
-5 -10 -11z"/>
<path d="M5905 5880 c10 -11 20 -20 23 -20 3 0 -3 9 -13 20 -10 11 -20 20 -23
20 -3 0 3 -9 13 -20z"/>
<path d="M5950 5886 c0 -2 7 -7 16 -10 8 -3 12 -2 9 4 -6 10 -25 14 -25 6z"/>
<path d="M5600 5749 c0 -5 5 -7 10 -4 6 3 10 8 10 11 0 2 -4 4 -10 4 -5 0 -10
-5 -10 -11z"/>
<path d="M6074 5559 c-4 -7 -3 -9 4 -5 5 3 13 0 15 -6 4 -9 6 -10 6 -1 1 17
-16 25 -25 12z"/>
<path d="M5862 5425 c-15 -17 -17 -25 -9 -25 8 0 19 11 25 25 6 14 10 25 9 25
-2 0 -13 -11 -25 -25z"/>
<path d="M5570 5409 c0 -11 21 -11 39 0 9 6 5 9 -13 9 -14 0 -26 -4 -26 -9z"/>
<path d="M5608 5398 c-34 -12 -37 -28 -5 -27 35 2 86 16 62 18 -17 1 -18 3 -5
11 12 8 11 10 -5 9 -11 0 -32 -5 -47 -11z"/>
<path d="M5688 5403 c7 -3 16 -2 19 1 4 3 -2 6 -13 5 -11 0 -14 -3 -6 -6z"/>
<path d="M5738 5393 c12 -2 30 -2 40 0 9 3 -1 5 -23 4 -22 0 -30 -2 -17 -4z"/>
<path d="M5698 5373 c6 -2 18 -2 25 0 6 3 1 5 -13 5 -14 0 -19 -2 -12 -5z"/>
<path d="M5877 5249 c12 -12 24 -21 27 -18 2 2 -8 13 -22 23 l-27 19 22 -24z"/>
<path d="M5890 5266 c0 -2 7 -7 16 -10 8 -3 12 -2 9 4 -6 10 -25 14 -25 6z"/>
<path d="M6008 5223 c7 -3 16 -2 19 1 4 3 -2 6 -13 5 -11 0 -14 -3 -6 -6z"/>
<path d="M6629 3123 c-13 -16 -12 -17 4 -4 16 13 21 21 13 21 -2 0 -10 -8 -17
-17z"/>
<path d="M6789 2878 c-5 -18 -6 -38 -1 -34 7 8 12 36 6 36 -2 0 -4 -1 -5 -2z"/>
<path d="M7050 2526 c0 -2 8 -10 18 -17 15 -13 16 -12 3 4 -13 16 -21 21 -21
13z"/>
<path d="M2855 2510 c-3 -5 -1 -10 4 -10 6 0 11 5 11 10 0 6 -2 10 -4 10 -3 0
-8 -4 -11 -10z"/>
</g>
</svg>
