<?xml version="1.0" encoding="UTF-8"?>
<svg id="Layer_2" data-name="Layer 2" xmlns="http://www.w3.org/2000/svg" viewBox="0 0 960 1080">
  <defs>
    <style>
      .cls-1 {
        fill: #0600ca;
      }

      .cls-2 {
        fill: #fff;
      }
    </style>
  </defs>
  <g id="Layer_1-2" data-name="Layer 1">
    <g>
      <rect class="cls-1" width="960" height="1080"/>
      <g>
        <g>
          <path class="cls-2" d="M365.78,619.32h-39.8c0-38.72-30.78-69.55-69.2-70.73v-38.27c60.2,0,109,48.8,109,109Z"/>
          <path class="cls-2" d="M415.41,532.01v41.02c-60.2,0-109-50.3-109-112.35h38.28c1.18,39.6,32,71.33,70.72,71.33Z"/>
        </g>
        <g>
          <path class="cls-2" d="M453.39,498.49c-.49,0-.88-.18-1.16-.53l-11.11-13.53-3.58,3.37v9.21c0,.42-.15,.77-.45,1.05-.3,.28-.64,.42-1.03,.42h-6c-.39,0-.73-.14-1.03-.42-.3-.28-.45-.63-.45-1.05v-33.86c0-.39,.15-.73,.45-1.03,.3-.3,.64-.45,1.03-.45h6c.39,0,.73,.15,1.03,.45,.3,.3,.45,.64,.45,1.03v12.32l14.27-13.37c.28-.28,.61-.42,1-.42h8.74c.67,0,1.12,.32,1.37,.95,.28,.63,.16,1.18-.37,1.63l-14.9,14.01,14.58,17.8c.39,.46,.46,.98,.21,1.58-.28,.56-.74,.84-1.37,.84h-7.69Z"/>
          <path class="cls-2" d="M479.19,499.49c-2.67,0-5.18-.51-7.53-1.53-2.35-1.02-4.41-2.4-6.16-4.16-1.75-1.75-3.15-3.81-4.19-6.16-1.04-2.35-1.55-4.88-1.55-7.58s.52-5.23,1.55-7.58c1.04-2.35,2.43-4.4,4.19-6.13,1.75-1.74,3.82-3.11,6.19-4.13,2.37-1.02,4.87-1.53,7.5-1.53s5.13,.51,7.5,1.53c2.37,1.02,4.43,2.4,6.19,4.13,1.75,1.74,3.15,3.78,4.19,6.13,1.03,2.35,1.55,4.88,1.55,7.58s-.51,5.23-1.53,7.58c-1.02,2.35-2.41,4.41-4.19,6.16-1.77,1.76-3.83,3.14-6.19,4.16-2.35,1.02-4.86,1.53-7.53,1.53Zm10.48-19.43c0-1.44-.28-2.79-.84-4.05-.56-1.26-1.32-2.37-2.26-3.32-.95-.95-2.05-1.69-3.32-2.24-1.26-.54-2.62-.82-4.05-.82s-2.8,.27-4.08,.82c-1.28,.54-2.4,1.29-3.34,2.24-.95,.95-1.69,2.05-2.24,3.32-.54,1.26-.82,2.62-.82,4.05s.27,2.8,.82,4.08c.54,1.28,1.29,2.4,2.24,3.34,.95,.95,2.06,1.69,3.34,2.24,1.28,.54,2.64,.82,4.08,.82s2.79-.27,4.05-.82c1.26-.54,2.37-1.29,3.32-2.24,.95-.95,1.7-2.06,2.26-3.34,.56-1.28,.84-2.64,.84-4.08Z"/>
          <path class="cls-2" d="M513.31,498.81c-1.09,0-2.05-.12-2.9-.37-2.11-.49-3.94-1.42-5.5-2.79-1.56-1.37-2.71-3.05-3.45-5.05-.18-.39-.18-.76,0-1.13,.18-.37,.46-.62,.84-.76l5.58-2.11c.21-.07,.39-.11,.53-.11,.67,0,1.14,.32,1.42,.95,.28,.74,.73,1.33,1.34,1.76,.61,.44,1.32,.66,2.13,.66h10.53c.63,0,1.17-.23,1.61-.68,.44-.46,.66-.98,.66-1.58s-.18-1.11-.55-1.53c-.37-.42-.85-.67-1.45-.74l-14.48-1.9s-.07-.02-.11-.05c-1.26-.28-2.43-.75-3.5-1.42-1.07-.67-1.98-1.47-2.74-2.42s-1.34-2.02-1.76-3.21c-.42-1.19-.63-2.44-.63-3.74,0-1.54,.3-2.98,.9-4.32,.6-1.33,1.39-2.51,2.4-3.53,1-1.02,2.18-1.82,3.53-2.4s2.78-.87,4.29-.87h6.95c2.88,0,5.66,.57,8.35,1.71,2.68,1.14,5.03,2.75,7.03,4.82,.28,.32,.41,.68,.4,1.11-.02,.42-.17,.77-.45,1.05l-4.32,4.11c-.25,.28-.58,.42-1,.42s-.79-.16-1.11-.47c-1.16-1.19-2.51-2.12-4.05-2.79-1.54-.67-3.16-1-4.84-1h-6.95c-.6,0-1.11,.21-1.53,.63-.42,.42-.63,.93-.63,1.53,0,.49,.14,.92,.42,1.29s.65,.62,1.11,.76l13.9,1.79c1.4,.18,2.7,.6,3.9,1.26,1.19,.67,2.23,1.5,3.11,2.5,.88,1,1.56,2.13,2.05,3.4s.74,2.6,.74,4c0,1.26-.21,2.48-.63,3.66-.42,1.18-1,2.25-1.74,3.21-.74,.97-1.62,1.79-2.66,2.47s-2.18,1.18-3.45,1.5c-.42,.14-.86,.24-1.32,.29-.46,.05-.93,.08-1.42,.08h-10.53Z"/>
          <path class="cls-2" d="M550.85,498.49c-.39,0-.73-.14-1.03-.42-.3-.28-.45-.63-.45-1.05v-26.38h-11.58c-.39,0-.73-.15-1.03-.45-.3-.3-.45-.64-.45-1.03v-6c0-.39,.15-.73,.45-1.03,.3-.3,.64-.45,1.03-.45h32.12c.42,0,.77,.15,1.05,.45,.28,.3,.42,.64,.42,1.03v6c0,.39-.14,.73-.42,1.03-.28,.3-.63,.45-1.05,.45h-11.58v26.38c0,.42-.14,.77-.42,1.05-.28,.28-.63,.42-1.05,.42h-6Z"/>
          <path class="cls-2" d="M589.39,499.02c-2.18,0-4.23-.41-6.16-1.24-1.93-.82-3.62-1.96-5.05-3.4-1.44-1.44-2.58-3.12-3.42-5.05-.84-1.93-1.26-4-1.26-6.21v-19.96c0-.39,.15-.73,.45-1.03,.3-.3,.64-.45,1.03-.45h6c.39,0,.73,.15,1.03,.45,.3,.3,.45,.64,.45,1.03v19.96c0,.95,.18,1.84,.55,2.69,.37,.84,.87,1.58,1.5,2.21s1.37,1.13,2.21,1.5c.84,.37,1.74,.55,2.69,.55s1.85-.18,2.71-.55c.86-.37,1.61-.87,2.24-1.5s1.13-1.37,1.5-2.21c.37-.84,.55-1.74,.55-2.69v-19.96c0-.39,.14-.73,.42-1.03,.28-.3,.63-.45,1.05-.45h5.95c.42,0,.78,.15,1.08,.45,.3,.3,.45,.64,.45,1.03v19.96c0,2.21-.42,4.28-1.26,6.21-.84,1.93-1.99,3.62-3.45,5.05-1.46,1.44-3.15,2.57-5.08,3.4-1.93,.82-3.98,1.24-6.16,1.24Z"/>
          <path class="cls-2" d="M611.5,498.49c-.39,0-.73-.15-1.03-.45-.3-.3-.45-.64-.45-1.03v-33.86c0-.42,.15-.77,.45-1.05,.3-.28,.64-.42,1.03-.42h16.85c2.42,.14,4.69,.72,6.82,1.74,2.12,1.02,3.97,2.35,5.53,4,1.56,1.65,2.79,3.56,3.69,5.74,.89,2.18,1.34,4.48,1.34,6.9s-.48,4.92-1.45,7.16c-.97,2.25-2.28,4.2-3.95,5.87-1.67,1.67-3.62,2.98-5.87,3.95-2.25,.97-4.63,1.45-7.16,1.45h-15.8Zm15.8-8.95c1.3,0,2.53-.25,3.69-.74,1.16-.49,2.17-1.17,3.03-2.03,.86-.86,1.54-1.87,2.03-3.03,.49-1.16,.74-2.39,.74-3.69s-.25-2.52-.74-3.66c-.49-1.14-1.17-2.14-2.03-3-.86-.86-1.87-1.54-3.03-2.03-1.16-.49-2.39-.74-3.69-.74h-8.32v18.9h8.32Z"/>
          <path class="cls-2" d="M657.26,498.49c-.42,0-.77-.14-1.05-.42-.28-.28-.42-.63-.42-1.05v-11.32l-12.22-21.8c-.28-.46-.28-.95,0-1.47,.28-.49,.7-.74,1.26-.74h6.85c.6,0,1.03,.26,1.32,.79l7.27,12.9,7.27-12.9c.28-.53,.7-.79,1.26-.79h6.84c.6,0,1.04,.25,1.32,.74,.28,.53,.28,1.02,0,1.47l-12.22,21.8v11.32c0,.42-.15,.77-.45,1.05-.3,.28-.66,.42-1.08,.42h-5.95Z"/>
        </g>
        <g>
          <path class="cls-2" d="M430.06,558.88c-.39,0-.73-.14-1.03-.42-.3-.28-.45-.63-.45-1.05v-33.86c0-.39,.15-.73,.45-1.03,.3-.3,.64-.45,1.03-.45h6c.39,0,.73,.15,1.03,.45,.3,.3,.45,.64,.45,1.03v26.38h22.11c.42,0,.78,.15,1.08,.45,.3,.3,.45,.66,.45,1.08v5.95c0,.42-.15,.77-.45,1.05-.3,.28-.66,.42-1.08,.42h-29.59Z"/>
          <path class="cls-2" d="M465.29,558.88c-.39,0-.73-.14-1.03-.42-.3-.28-.45-.63-.45-1.05v-33.86c0-.39,.15-.73,.45-1.03,.3-.3,.64-.45,1.03-.45h31.43c.42,0,.77,.15,1.05,.45,.28,.3,.42,.64,.42,1.03v6c0,.39-.14,.73-.42,1.03-.28,.3-.63,.45-1.05,.45h-23.96v3.37h22.27c.42,0,.77,.14,1.05,.42,.28,.28,.42,.63,.42,1.05v5.95c0,.42-.14,.78-.42,1.08-.28,.3-.63,.45-1.05,.45h-22.27v6.58h23.75c.42,0,.78,.15,1.08,.45,.3,.3,.45,.66,.45,1.08v5.95c0,.42-.15,.77-.45,1.05-.3,.28-.66,.42-1.08,.42h-31.22Z"/>
          <path class="cls-2" d="M527.57,558.88c-.7,0-1.16-.33-1.37-1l-1.53-4.32h-14.32l-1.47,4.32c-.11,.32-.29,.56-.55,.74-.26,.18-.55,.26-.87,.26h-6.32c-.49,0-.9-.21-1.21-.63-.28-.39-.33-.82-.16-1.32l11.64-33.86c.07-.28,.24-.52,.5-.71,.26-.19,.55-.29,.87-.29h9.48c.7,0,1.17,.33,1.42,1l11.64,33.86c.17,.49,.12,.93-.16,1.32-.32,.42-.74,.63-1.26,.63h-6.32Zm-5.95-14.27l-4.11-11.9-4.05,11.9h8.16Z"/>
          <path class="cls-2" d="M563.48,558.88c-.63,0-1.09-.28-1.37-.84l-6.95-14.69h-8.21v14.06c0,.42-.15,.77-.45,1.05-.3,.28-.64,.42-1.03,.42h-6c-.39,0-.73-.14-1.03-.42-.3-.28-.45-.63-.45-1.05v-33.86c0-.39,.15-.73,.45-1.03,.3-.3,.64-.45,1.03-.45h22.43c1.4,.07,2.72,.4,3.95,1,1.23,.6,2.29,1.37,3.19,2.32s1.61,2.04,2.13,3.29c.53,1.25,.79,2.59,.79,4.03,0,1.16-.18,2.26-.53,3.32-.35,1.05-.84,2.02-1.47,2.9-.63,.88-1.39,1.64-2.26,2.29-.88,.65-1.84,1.17-2.9,1.55l6.63,14.01c.25,.53,.21,1-.11,1.42-.28,.46-.7,.68-1.26,.68h-6.58Zm-2.16-24.48c.49,0,.9-.17,1.21-.5,.32-.33,.47-.73,.47-1.18,0-.49-.16-.9-.47-1.21-.32-.32-.72-.47-1.21-.47h-14.37v3.37h14.37Z"/>
          <path class="cls-2" d="M601.97,558.88c-.49,0-.88-.19-1.16-.58l-16.11-21.32v20.43c0,.42-.15,.77-.45,1.05-.3,.28-.64,.42-1.03,.42h-6c-.39,0-.73-.14-1.03-.42-.3-.28-.45-.63-.45-1.05v-33.86c0-.39,.15-.73,.45-1.03,.3-.3,.64-.45,1.03-.45h6.74c.49,0,.88,.19,1.16,.58l16.11,21.38v-20.43c0-.42,.15-.78,.45-1.08,.3-.3,.66-.45,1.08-.45h5.95c.42,0,.77,.15,1.05,.45,.28,.3,.42,.66,.42,1.08v33.8c0,.42-.14,.77-.42,1.05-.28,.28-.63,.42-1.05,.42h-6.74Z"/>
          <path class="cls-2" d="M616.98,558.88c-.39,0-.73-.14-1.03-.42-.3-.28-.45-.63-.45-1.05v-33.86c0-.39,.15-.73,.45-1.03,.3-.3,.64-.45,1.03-.45h6c.39,0,.73,.15,1.03,.45,.3,.3,.45,.64,.45,1.03v33.86c0,.42-.15,.77-.45,1.05-.3,.28-.64,.42-1.03,.42h-6Z"/>
          <path class="cls-2" d="M655.99,558.88c-.49,0-.88-.19-1.16-.58l-16.11-21.32v20.43c0,.42-.15,.77-.45,1.05-.3,.28-.64,.42-1.03,.42h-6c-.39,0-.73-.14-1.03-.42-.3-.28-.45-.63-.45-1.05v-33.86c0-.39,.15-.73,.45-1.03,.3-.3,.64-.45,1.03-.45h6.74c.49,0,.88,.19,1.16,.58l16.11,21.38v-20.43c0-.42,.15-.78,.45-1.08,.3-.3,.66-.45,1.08-.45h5.95c.42,0,.77,.15,1.05,.45,.28,.3,.42,.66,.42,1.08v33.8c0,.42-.14,.77-.42,1.05-.28,.28-.63,.42-1.05,.42h-6.74Z"/>
          <path class="cls-2" d="M691.38,559.3c-.7,.17-1.39,.29-2.05,.34-.67,.05-1.33,.08-2,.08-2.28,0-4.47-.38-6.56-1.13-2.09-.75-3.98-1.82-5.66-3.19s-3.12-3-4.29-4.9c-1.18-1.9-1.99-3.97-2.45-6.21-.49-2.32-.55-4.61-.18-6.87s1.09-4.39,2.16-6.37c1.07-1.98,2.46-3.75,4.19-5.29,1.72-1.54,3.69-2.74,5.9-3.58,1.09-.46,2.23-.79,3.42-1s2.37-.32,3.53-.32c2.74,0,5.33,.54,7.77,1.63,2.44,1.09,4.59,2.63,6.45,4.63,.28,.28,.42,.65,.42,1.11-.07,.49-.26,.84-.58,1.05l-4.74,3.74c-.25,.21-.54,.32-.9,.32-.42,0-.77-.16-1.05-.47-2.07-2-4.53-3-7.37-3-.39,0-.76,.02-1.11,.05-.35,.04-.7,.09-1.05,.16-1.4,.32-2.68,.87-3.82,1.66-1.14,.79-2.08,1.75-2.82,2.87-.74,1.12-1.24,2.36-1.5,3.71-.26,1.35-.25,2.73,.03,4.13,.25,1.19,.68,2.3,1.32,3.32,.63,1.02,1.4,1.9,2.32,2.63,.91,.74,1.93,1.32,3.05,1.74s2.3,.63,3.53,.63c2.6,0,4.91-.86,6.95-2.58v-4.84h-10.11c-.42,0-.77-.15-1.05-.45s-.42-.64-.42-1.03v-6c0-.42,.14-.77,.42-1.05,.28-.28,.63-.42,1.05-.42h17.59c.39,0,.73,.14,1.03,.42,.3,.28,.45,.63,.45,1.05v21.54c0,.42-.15,.77-.45,1.05-.3,.28-.64,.42-1.03,.42h-6c-.49,0-.88-.17-1.16-.53-.53,.18-1.05,.36-1.58,.55s-1.07,.32-1.63,.4Z"/>
        </g>
        <g>
          <path class="cls-2" d="M453.75,619.26c-.7,0-1.16-.33-1.37-1l-1.53-4.32h-14.32l-1.47,4.32c-.11,.32-.29,.56-.55,.74-.26,.18-.55,.26-.87,.26h-6.32c-.49,0-.9-.21-1.21-.63-.28-.39-.33-.82-.16-1.32l11.64-33.86c.07-.28,.24-.52,.5-.71,.26-.19,.55-.29,.87-.29h9.48c.7,0,1.17,.33,1.42,1l11.64,33.86c.17,.49,.12,.93-.16,1.32-.32,.42-.74,.63-1.26,.63h-6.32Zm-5.95-14.27l-4.11-11.9-4.05,11.9h8.16Z"/>
          <path class="cls-2" d="M465.65,619.26c-.39,0-.73-.14-1.03-.42-.3-.28-.45-.63-.45-1.05v-33.86c0-.39,.15-.73,.45-1.03s.64-.45,1.03-.45h19.9c1.75,.04,3.4,.41,4.92,1.13,1.53,.72,2.85,1.67,3.98,2.84,1.12,1.18,2.02,2.54,2.69,4.08,.67,1.54,1,3.19,1,4.95s-.34,3.48-1.03,5.05c-.68,1.58-1.61,2.95-2.76,4.11-1.16,1.16-2.53,2.08-4.11,2.76-1.58,.68-3.26,1.03-5.05,1.03h-12.06v9.37c0,.42-.15,.77-.45,1.05-.3,.28-.64,.42-1.03,.42h-6Zm19.53-19.8c1.12,0,2.07-.39,2.84-1.16,.77-.77,1.16-1.72,1.16-2.84s-.39-2.08-1.16-2.87-1.72-1.18-2.84-1.18h-12.06v8.06h12.06Z"/>
          <path class="cls-2" d="M503.04,619.26c-.39,0-.73-.14-1.03-.42-.3-.28-.45-.63-.45-1.05v-33.86c0-.39,.15-.73,.45-1.03s.64-.45,1.03-.45h19.9c1.75,.04,3.4,.41,4.92,1.13,1.53,.72,2.85,1.67,3.98,2.84,1.12,1.18,2.02,2.54,2.69,4.08,.67,1.54,1,3.19,1,4.95s-.34,3.48-1.03,5.05c-.68,1.58-1.61,2.95-2.76,4.11-1.16,1.16-2.53,2.08-4.11,2.76-1.58,.68-3.26,1.03-5.05,1.03h-12.06v9.37c0,.42-.15,.77-.45,1.05-.3,.28-.64,.42-1.03,.42h-6Zm19.53-19.8c1.12,0,2.07-.39,2.84-1.16,.77-.77,1.16-1.72,1.16-2.84s-.39-2.08-1.16-2.87-1.72-1.18-2.84-1.18h-12.06v8.06h12.06Z"/>
        </g>
        <path class="cls-2" d="M545.79,605.7c.76,0,1.47,.15,2.15,.44,.67,.29,1.26,.69,1.75,1.18,.49,.5,.89,1.08,1.18,1.75,.29,.67,.44,1.39,.44,2.15s-.15,1.47-.44,2.15c-.29,.67-.69,1.26-1.18,1.76-.5,.5-1.08,.9-1.75,1.18s-1.39,.43-2.15,.43-1.47-.14-2.14-.43c-.67-.29-1.26-.68-1.75-1.18-.5-.5-.89-1.09-1.18-1.76-.29-.67-.44-1.39-.44-2.15s.15-1.47,.44-2.15c.29-.67,.69-1.26,1.18-1.75s1.08-.89,1.75-1.18c.67-.29,1.39-.44,2.14-.44Zm0,9.74c.59,0,1.14-.11,1.65-.34,.51-.22,.96-.53,1.33-.9s.68-.83,.9-1.35c.22-.52,.34-1.06,.34-1.63s-.11-1.13-.34-1.63c-.22-.5-.53-.95-.9-1.33-.38-.39-.82-.69-1.33-.9-.51-.22-1.06-.32-1.65-.32s-1.11,.11-1.62,.32c-.51,.22-.96,.52-1.35,.9-.39,.39-.69,.83-.9,1.33-.22,.5-.32,1.05-.32,1.63s.11,1.12,.32,1.63c.22,.52,.52,.97,.9,1.35,.39,.38,.83,.68,1.35,.9,.51,.22,1.05,.34,1.62,.34Zm1.83-4.99c0,.26-.06,.51-.19,.74-.12,.23-.29,.42-.51,.56l.74,1.48h-1.32l-.6-1.21h-.16v1.21h-1.18v-4.34h1.67c.43,0,.8,.15,1.1,.45,.3,.3,.45,.67,.45,1.1Zm-1.55,.39c.11,0,.2-.04,.27-.12,.07-.08,.1-.17,.1-.28s-.03-.2-.1-.28c-.07-.08-.16-.12-.27-.12h-.49v.79h.49Z"/>
      </g>
    </g>
  </g>
</svg>